# xmcd
#
# Track frame offsets: 
#        150
#        20667
#        32772
#        50389
#
# Disc length: 967 seconds
#
# Revision: 1
# Processed by: cddbd v1.5.1PL0 Copyright (c) Steve Scherf et al.
# Submitted via: ExactAudioCopy v0.95b3
#
DISCID=2b03c504
DTITLE=THE BRILLIANT GREEN - GOODBYE AND GOOD LUCK
DYEAR=1997
DGENRE=Rock
TTITLE0=goodbye and good luck
TTITLE1=YES
TTITLE2=I NEVER DREAME
TTITLE3=MISTER MOON
EXTD=
EXTT0=
EXTT1=
EXTT2=
EXTT3=
PLAYORDER=
